<svg width="192" height="192" viewBox="0 0 192 192" fill="none" xmlns="http://www.w3.org/2000/svg">
<path d="M145.043 100.808L143.939 98.776L115.38 106.614L79.6841 145.577L80.8518 147.683C80.9062 147.786 80.995 147.866 81.1025 147.909C81.2291 147.956 81.3662 147.968 81.4991 147.944L111.775 144.452C112.02 144.419 112.261 144.356 112.491 144.265C113.007 144.068 113.487 143.785 113.91 143.429C114.105 143.268 114.281 143.086 114.434 142.884L145.023 101.464C145.092 101.387 145.133 101.289 145.14 101.186C145.154 101.053 145.12 100.918 145.043 100.808Z" fill="white"/>
<mask id="mask0_548_226" style="mask-type:luminance" maskUnits="userSpaceOnUse" x="79" y="98" width="67" height="50">
<path d="M145.043 100.808L143.939 98.776L115.38 106.614L79.6841 145.577L80.8518 147.683C80.9062 147.786 80.995 147.866 81.1025 147.909C81.2291 147.956 81.3662 147.968 81.4991 147.944L111.775 144.452C112.02 144.419 112.261 144.356 112.491 144.265C113.007 144.068 113.487 143.785 113.91 143.429C114.105 143.268 114.281 143.086 114.434 142.884L145.023 101.464C145.092 101.387 145.133 101.289 145.14 101.186C145.154 101.053 145.12 100.918 145.043 100.808Z" fill="white"/>
</mask>
<g mask="url(#mask0_548_226)">
<path opacity="0.2" d="M145.143 101.191C145.157 101.059 145.123 100.925 145.047 100.815L143.943 98.7834L115.38 106.614L101.566 121.689L113.703 143.579C113.777 143.538 113.843 143.476 113.906 143.422C114.101 143.261 114.277 143.078 114.43 142.877L145.023 101.464C145.092 101.388 145.134 101.293 145.143 101.191Z" fill="black"/>
<path opacity="0.2" d="M113.076 144.047L111.193 140.651L110.335 141.126L112.159 144.417C112.482 144.343 112.792 144.218 113.076 144.047Z" fill="black"/>
</g>
<path d="M145.043 100.808L143.939 98.776L115.38 106.614L79.6841 145.577L80.8518 147.683C80.9062 147.786 80.995 147.866 81.1025 147.909C81.2291 147.956 81.3662 147.968 81.4991 147.944L111.775 144.452C112.02 144.419 112.261 144.356 112.491 144.265C113.007 144.068 113.487 143.785 113.91 143.429C114.105 143.268 114.281 143.086 114.434 142.884L145.023 101.464C145.092 101.387 145.133 101.289 145.14 101.186C145.154 101.053 145.12 100.918 145.043 100.808Z" stroke="#263238" stroke-miterlimit="10"/>
<path d="M129.652 103.412L125.976 104.383C125.921 104.397 125.868 104.415 125.817 104.439C125.765 104.467 125.711 104.497 125.659 104.526C125.61 104.555 125.563 104.586 125.518 104.62C125.48 104.65 125.445 104.682 125.413 104.717C125.391 104.74 125.375 104.769 125.367 104.801C125.367 104.81 125.369 104.82 125.374 104.828C125.378 104.836 125.385 104.843 125.393 104.848C125.416 104.862 125.443 104.869 125.47 104.866C125.515 104.866 125.558 104.859 125.601 104.845L129.281 103.882C129.337 103.865 129.391 103.846 129.445 103.823L129.605 103.734C129.654 103.704 129.702 103.671 129.748 103.636C129.785 103.607 129.82 103.575 129.852 103.539C129.873 103.516 129.888 103.487 129.896 103.457C129.897 103.447 129.895 103.437 129.89 103.428C129.885 103.42 129.878 103.412 129.869 103.407C129.844 103.394 129.816 103.387 129.787 103.388C129.742 103.391 129.698 103.398 129.655 103.41" fill="white"/>
<path d="M140.639 100.96L134.433 102.589L133.542 103.083C133.444 103.138 133.348 103.191 133.251 103.244C133.155 103.298 133.052 103.339 132.954 103.377C132.856 103.415 132.755 103.455 132.658 103.489C132.562 103.524 132.469 103.549 132.382 103.572L121.549 106.395L121.324 106.443C121.253 106.453 121.188 106.46 121.129 106.464C121.076 106.465 121.023 106.462 120.97 106.455C120.93 106.449 120.89 106.437 120.854 106.42L120.51 106.249L114.958 107.715L84.9669 141.049L113.335 137.035L140.639 100.96Z" fill="white" stroke="white" stroke-width="3" stroke-miterlimit="10"/>
<path d="M143.919 98.5711C143.817 98.5302 143.706 98.5142 143.597 98.5243C143.426 98.5333 143.257 98.5621 143.093 98.6101L116.063 105.858C115.894 105.905 115.728 105.963 115.567 106.033C115.395 106.109 115.227 106.195 115.064 106.289C114.905 106.38 114.752 106.481 114.606 106.591C114.479 106.686 114.361 106.791 114.252 106.907L79.93 144.683C79.8015 144.819 79.692 144.972 79.6048 145.137C79.5417 145.243 79.5126 145.365 79.5212 145.487C79.5258 145.533 79.5427 145.576 79.57 145.613C79.5974 145.65 79.6342 145.679 79.6766 145.697C79.8023 145.747 79.9392 145.76 80.0721 145.736L110.435 142.029C110.68 141.996 110.921 141.934 111.152 141.844C111.668 141.647 112.148 141.364 112.571 141.008C112.766 140.848 112.942 140.665 113.095 140.464L143.918 99.0105C143.986 98.9315 144.027 98.8329 144.036 98.729C144.032 98.6946 144.02 98.6618 143.999 98.634C143.979 98.6062 143.951 98.5845 143.919 98.5711ZM113.332 137.036L84.9669 141.049L114.945 107.697L120.497 106.23L120.84 106.401C120.877 106.419 120.916 106.431 120.956 106.437C121.009 106.444 121.063 106.447 121.116 106.445C121.175 106.441 121.239 106.435 121.311 106.424L121.536 106.377L132.369 103.566C132.459 103.542 132.554 103.515 132.646 103.483C132.738 103.452 132.842 103.413 132.941 103.371C133.04 103.329 133.14 103.287 133.239 103.239C133.337 103.19 133.431 103.132 133.53 103.077L134.42 102.584L140.627 100.955L113.332 137.036ZM125.36 104.795C125.368 104.763 125.384 104.734 125.407 104.711C125.439 104.676 125.474 104.643 125.511 104.614C125.557 104.58 125.604 104.549 125.653 104.52C125.704 104.491 125.759 104.461 125.81 104.432C125.862 104.409 125.915 104.39 125.97 104.376L129.646 103.406C129.689 103.394 129.734 103.386 129.778 103.384C129.807 103.382 129.835 103.389 129.86 103.403C129.869 103.408 129.876 103.415 129.881 103.424C129.886 103.432 129.888 103.442 129.887 103.452C129.879 103.483 129.864 103.511 129.843 103.535C129.811 103.57 129.777 103.603 129.739 103.631C129.693 103.667 129.645 103.699 129.596 103.73L129.436 103.818C129.382 103.841 129.328 103.861 129.272 103.877L125.592 104.841C125.55 104.854 125.506 104.861 125.461 104.861C125.434 104.864 125.407 104.858 125.384 104.843C125.376 104.837 125.37 104.83 125.367 104.821C125.363 104.812 125.362 104.803 125.362 104.794L125.36 104.795ZM98.1141 140.26C98.082 140.339 98.0373 140.411 97.9819 140.475C97.9103 140.559 97.8307 140.636 97.7442 140.704C97.6532 140.779 97.5561 140.847 97.4537 140.907C97.3547 140.965 97.2514 141.016 97.1446 141.059C97.0534 141.093 96.9588 141.117 96.8624 141.131C96.7903 141.143 96.7164 141.139 96.646 141.119C96.623 141.112 96.6017 141.1 96.5838 141.084C96.5659 141.067 96.5517 141.047 96.5423 141.025C96.5279 140.97 96.5335 140.913 96.5581 140.862C96.589 140.783 96.6338 140.71 96.6903 140.646C96.7619 140.563 96.8415 140.486 96.9279 140.418C97.0193 140.344 97.1161 140.278 97.2174 140.219C97.3156 140.161 97.4181 140.111 97.524 140.068C97.6147 140.033 97.7088 140.008 97.8048 139.993C97.8763 139.98 97.9498 139.983 98.0198 140.003C98.0437 140.009 98.0658 140.02 98.0843 140.036C98.1028 140.052 98.1171 140.073 98.126 140.095C98.1424 140.15 98.1382 140.209 98.1141 140.26Z" fill="#263238"/>
<path d="M97.8024 139.994C97.7064 140.009 97.6122 140.035 97.5216 140.07C97.4157 140.112 97.3132 140.162 97.2149 140.22C97.1137 140.279 97.0169 140.346 96.9255 140.419C96.8391 140.488 96.7595 140.564 96.6879 140.648C96.6314 140.711 96.5866 140.784 96.5557 140.863C96.5311 140.914 96.5255 140.972 96.5399 141.027C96.5493 141.049 96.5635 141.069 96.5814 141.085C96.5993 141.101 96.6205 141.113 96.6436 141.121C96.714 141.14 96.7878 141.145 96.86 141.133C96.9564 141.119 97.051 141.094 97.1422 141.06C97.2489 141.017 97.3523 140.967 97.4513 140.908C97.5536 140.849 97.6508 140.781 97.7418 140.705C97.8283 140.637 97.9079 140.56 97.9795 140.477C98.0349 140.413 98.0796 140.34 98.1117 140.261C98.1346 140.21 98.1379 140.152 98.1211 140.098C98.1122 140.075 98.0979 140.055 98.0794 140.039C98.0609 140.023 98.0388 140.011 98.0149 140.006C97.9449 139.986 97.8714 139.983 97.7999 139.996" fill="white"/>
<path d="M83.6433 133.864L85.0105 134.666" stroke="#263238" stroke-miterlimit="10"/>
<path d="M63.5618 122.081L82.0987 132.956" stroke="#09DBFF" stroke-miterlimit="10"/>
<path d="M89.8181 125.919L90.7534 126.658" stroke="#263238" stroke-miterlimit="10"/>
<path d="M83.4435 120.883L88.773 125.093" stroke="#09DBFF" stroke-miterlimit="10"/>
<path d="M126.529 85.9838L128.355 101.164" stroke="#09DBFF" stroke-miterlimit="10"/>
<path d="M126.08 82.2375L126.302 84.1101" stroke="#263238" stroke-miterlimit="10"/>
<path d="M137.297 95.8743L136.869 97.6951" stroke="#263238" stroke-miterlimit="10"/>
<path d="M140.066 84.1307L137.726 94.0535" stroke="#09DBFF" stroke-miterlimit="10"/>
<path d="M86.35 129.993L94.8424 135.644" stroke="#09DBFF" stroke-miterlimit="10"/>
<path d="M133.91 97.1914L132.808 105.841" stroke="#09DBFF" stroke-miterlimit="10"/>
<path d="M105.076 113.178L109.199 118.037" stroke="#09DBFF" stroke-miterlimit="10"/>
<path d="M119.056 90.5514C123.719 74.2819 114.311 57.3123 98.0412 52.6487C81.7717 47.9852 64.8021 57.3937 60.1385 73.6633C55.475 89.9328 64.8835 106.902 81.1531 111.566C97.4226 116.23 114.392 106.821 119.056 90.5514Z" fill="white"/>
<mask id="mask1_548_226" style="mask-type:luminance" maskUnits="userSpaceOnUse" x="58" y="51" width="63" height="62">
<path d="M119.056 90.5514C123.719 74.2819 114.311 57.3123 98.0412 52.6487C81.7717 47.9852 64.8021 57.3937 60.1385 73.6633C55.475 89.9328 64.8835 106.902 81.1531 111.566C97.4226 116.23 114.392 106.821 119.056 90.5514Z" fill="white"/>
</mask>
<g mask="url(#mask1_548_226)">
<path opacity="0.18" d="M119.056 90.5514C123.719 74.2819 114.311 57.3123 98.0412 52.6487C81.7717 47.9852 64.8021 57.3937 60.1385 73.6633C55.475 89.9328 64.8835 106.902 81.1531 111.566C97.4226 116.23 114.392 106.821 119.056 90.5514Z" fill="black"/>
<path opacity="0.86" d="M95.9457 93.557C90.1764 96.7551 83.5294 98.007 76.992 97.1267C70.4546 96.2465 64.3755 93.2811 59.6575 88.6709C60.6827 93.3324 62.7826 97.69 65.7898 101.396C68.797 105.103 72.6284 108.056 76.9786 110.019C81.3288 111.983 86.0775 112.904 90.8464 112.707C95.6153 112.511 100.272 111.204 104.447 108.89C108.621 106.575 112.197 103.318 114.89 99.3771C117.582 95.4363 119.317 90.921 119.956 86.191C120.595 81.4611 120.121 76.6473 118.57 72.1333C117.02 67.6192 114.436 63.5297 111.026 60.1907C112.436 66.6345 111.73 73.3613 109.014 79.3722C106.297 85.3831 101.714 90.3576 95.9457 93.557Z" fill="white"/>
<path d="M81.7545 70.2352L84.9342 69.9684L86.2666 70.7258L87.6609 70.5363L88.4567 71.6751L88.4011 72.6216L87.6161 73.3052L85.2833 73.599L85.1465 73.3524L85.9807 72.3095L84.8572 71.1847L82.778 71.5056L81.4526 70.912L81.7545 70.2352ZM114.078 90.733L111.585 91.0349L108.603 91.5243L106.63 92.6182L104.581 93.2546L102.791 94.8305L101.681 95.5266L100.98 95.915L100.07 97.4193L99.0791 98.6329L96.7538 98.5099L96.2104 96.4831L94.8827 96.6356L93.6101 97.3412L93.103 96.8743L92.5943 95.6602L91.7976 95.27L90.977 95.8894L91.0831 96.6625L90.0384 97.3255L88.4522 96.7153L87.2134 95.3997L87.1806 93.0899L89.0951 92.1928L89.8507 92.3576L90.6152 91.9337L91.2525 90.8323L92.2154 90.6209L94.4537 91.9594L94.8659 91.6503L93.9254 90.2564L93.1231 89.7049L92.5788 88.4267L94.367 86.1036L93.3806 83.5743L93.9411 82.1834L93.9565 80.2628L94.5216 79.7818L95.455 78.0164L95.2374 77.4728L94.2544 78.1017L93.7814 77.6965L93.0884 78.0807L92.1449 78.9262L92.1949 77.8184L94.0618 75.9514L94.2526 75.0975L95.9182 76.0023L96.8115 76.2583L97.5651 75.5181L96.7247 74.9038L94.8588 74.6905L92.375 73.8105L90.1839 73.6098L88.5206 74.2096L87.336 73.87L86.1806 74.1881L86.1916 74.5045L87.0862 76.4204L87.6856 76.9199L88.264 79.2658L86.4266 78.9528L86.1254 77.9559L84.4358 78.0607L83.4767 77.68L82.9129 75.9128L84.0165 73.5532L83.2984 71.9555L82.6335 72.408L81.8698 72.0833L81.1508 71.2341L80.6688 71.4175L80.9869 72.5728L80.36 73.088L78.8112 71.0448L78.1243 71.0097L77.022 71.121L76.2786 72.1878L78.2201 72.6945L79.0657 73.638L75.8198 73.1806L73.2718 72.3361L72.1889 70.6794L70.2523 71.0889L69.4429 72.6533C69.2384 73.0114 69.0138 73.3577 68.7702 73.6905C68.3344 74.0886 67.8698 74.454 67.3803 74.7836L67.7339 76.003L66.307 76.878L66.8222 77.5049L69.387 76.5827L71.3366 77.2494L72.5672 79.469L72.9607 81.8304L74.2526 83.8581L74.2004 87.9628L76.3915 92.8163L78.446 95.1725L80.4003 96.7492L81.4258 96.3482L80.543 95.506L79.611 95.0232L78.5175 93.8012L79.0186 93.3557L81.1793 95.1532L82.9598 96.8584L83.8773 98.5133L85.8967 99.3058L88.9367 99.6711L92.7376 98.7277L94.2854 99.1175L95.6109 99.711L97.1436 99.777L98.7564 99.3826L100.119 98.5432C100.119 98.5432 100.408 99.215 100.584 99.5332C100.761 99.8513 100.469 101.425 100.469 101.425L100.477 103.085L101.76 104.201L103.477 104.001L106.578 104.942L107.681 104.83L108.208 105.782L108.567 106.167C113.071 102.623 116.487 97.8833 118.424 92.4892L118.203 92.0088L118.201 87.9343L117.058 87.8201L114.078 90.733ZM106.765 61.9401L105.395 61.12L103.728 60.2127L102.424 58.443L103.674 57.9985L103.385 57.3266L102.521 57.7219L103.045 57.0154L103.563 56.1476L103.211 55.5113L101.881 54.9166L100.96 53.6381C94.7526 51.1642 87.9075 50.7849 81.4651 52.5578C75.0228 54.3307 69.3355 58.1587 65.268 63.46L67.3112 63.6847L67.0567 65.3252L65.9849 66.2418L66.8139 68.0393L66.4111 68.5109L66.1631 69.5642L66.8617 70.673L68.0131 70.2023L68.1716 71.5235L69.2519 70.9245L69.7922 67.5489L69.4212 66.4261L71.1307 65.3106L71.1508 64.2999L72.8903 63.0872L72.4837 61.9003L73.7824 61.0964C73.7824 61.0964 74.4552 60.0592 74.6476 59.9525C75.0586 59.8281 75.4782 59.7334 75.9028 59.6693L77.2812 59.9047L78.6155 59.1649L79.3739 57.8286L80.9076 57.146C81.1939 57.1661 81.4809 57.1175 81.7447 57.0043C82.0629 56.8279 82.7674 55.8537 82.7674 55.8537L85.248 55.9777L86.3298 56.126L86.859 57.0804L87.8832 56.677L87.8841 55.9285L88.9222 55.8527L89.1398 56.3963L87.5139 57.9652L89.372 58.7633L92.3663 58.7669L94.0263 59.5104L95.4969 58.8595L95.4622 58.0468L95.9006 57.6393L93.5401 57.2842L92.4512 57.7396L93.1407 57.0349L91.7772 56.3785L92.8244 55.7141L94.6453 55.7009L95.8099 57.0511L96.9697 57.4915L98.5647 59.019L100.526 59.2598L101.69 61.3586L103.684 61.5009L104.009 62.2369L104.274 63.1697L105.291 64.1021L105.738 64.6057L106.923 64.1967L106.834 62.8309L106.765 61.9401ZM104.036 55.0697L104.239 55.4347L104.484 56.6272L105.167 57.4122L106.005 57.2705L106.675 58.479L105.734 58.5847L107.463 62.1338L107.477 63.9572L108.973 65.4562L110.221 65.7602L112.126 69.1957L114.433 71.4087L116.456 72.9508L118.129 72.5198L117.931 70.9655L118.049 70.6903C117.574 69.5087 117.026 68.3575 116.409 67.2435C113.55 62.075 109.252 57.848 104.037 55.076L104.036 55.0697ZM89.1154 62.8135L83.8999 63.2933L82.0906 64.3802L82.3143 65.8362L81.0941 65.4325L79.8721 66.526L80.9075 68.6959L82.51 68.8877L82.6661 67.2211L84.1498 67.6464L87.08 68.2789L88.4851 69.9117L91.3012 71.0944L93.726 69.1695L93.1352 68.2493L91.9627 67.4838L90.4247 65.0122L90.4607 63.5767L89.1154 62.8135ZM93.3276 62.3096L92.2364 62.5921L91.7986 63.7506L93.2653 65.3493L94.094 64.8899L93.3276 62.3096ZM99.9168 60.2363L97.1251 60.3073L96.2562 59.7927L95.8534 60.2643L97.0029 61.2908L98.3027 62.7337L99.4677 62.5844L99.5209 62.2325L98.4195 61.5952L100.427 61.314L99.9168 60.2363ZM94.0736 93.4954L93.9637 93.8788L96.1898 93.3926L97.4455 93.8604L98.7276 93.3173L98.7832 92.3707L97.1839 92.9349L94.0736 93.4954ZM100.416 91.5589L99.2913 92.6823L99.7653 93.0837L101.418 92.1675L101.454 91.4831L100.918 91.8644L100.416 91.5589Z" fill="white"/>
<mask id="mask2_548_226" style="mask-type:luminance" maskUnits="userSpaceOnUse" x="65" y="51" width="54" height="56">
<mask id="path-26-inside-1_548_226" fill="white">
<path d="M81.7545 70.2352L84.9342 69.9684L86.2666 70.7258L87.6609 70.5363L88.4567 71.6751L88.4011 72.6216L87.6161 73.3052L85.2833 73.599L85.1465 73.3524L85.9807 72.3095L84.8572 71.1847L82.778 71.5056L81.4526 70.912L81.7545 70.2352ZM114.078 90.733L111.585 91.0349L108.603 91.5243L106.63 92.6182L104.581 93.2546L102.791 94.8305L101.681 95.5266L100.98 95.915L100.07 97.4193L99.0791 98.6329L96.7538 98.5099L96.2104 96.4831L94.8827 96.6356L93.6101 97.3412L93.103 96.8743L92.5943 95.6602L91.7976 95.27L90.977 95.8894L91.0831 96.6625L90.0384 97.3255L88.4522 96.7153L87.2134 95.3997L87.1806 93.0899L89.0951 92.1928L89.8507 92.3576L90.6152 91.9337L91.2525 90.8323L92.2154 90.6209L94.4537 91.9594L94.8659 91.6503L93.9254 90.2564L93.1231 89.7049L92.5788 88.4267L94.367 86.1036L93.3806 83.5743L93.9411 82.1834L93.9565 80.2628L94.5216 79.7818L95.455 78.0164L95.2374 77.4728L94.2544 78.1017L93.7814 77.6965L93.0884 78.0807L92.1449 78.9262L92.1949 77.8184L94.0618 75.9514L94.2526 75.0975L95.9182 76.0023L96.8115 76.2583L97.5651 75.5181L96.7247 74.9038L94.8588 74.6905L92.375 73.8105L90.1839 73.6098L88.5206 74.2096L87.336 73.87L86.1806 74.1881L86.1916 74.5045L87.0862 76.4204L87.6856 76.9199L88.264 79.2658L86.4266 78.9528L86.1254 77.9559L84.4358 78.0607L83.4767 77.68L82.9129 75.9128L84.0165 73.5532L83.2984 71.9555L82.6335 72.408L81.8698 72.0833L81.1508 71.2341L80.6688 71.4175L80.9869 72.5728L80.36 73.088L78.8112 71.0448L78.1243 71.0097L77.022 71.121L76.2786 72.1878L78.2201 72.6945L79.0657 73.638L75.8198 73.1806L73.2718 72.3361L72.1889 70.6794L70.2523 71.0889L69.4429 72.6533C69.2384 73.0114 69.0138 73.3577 68.7702 73.6905C68.3344 74.0886 67.8698 74.454 67.3803 74.7836L67.7339 76.003L66.307 76.878L66.8222 77.5049L69.387 76.5827L71.3366 77.2494L72.5672 79.469L72.9607 81.8304L74.2526 83.8581L74.2004 87.9628L76.3915 92.8163L78.446 95.1725L80.4003 96.7492L81.4258 96.3482L80.543 95.506L79.611 95.0232L78.5175 93.8012L79.0186 93.3557L81.1793 95.1532L82.9598 96.8584L83.8773 98.5133L85.8967 99.3058L88.9367 99.6711L92.7376 98.7277L94.2854 99.1175L95.6109 99.711L97.1436 99.777L98.7564 99.3826L100.119 98.5432C100.119 98.5432 100.408 99.215 100.584 99.5332C100.761 99.8513 100.469 101.425 100.469 101.425L100.477 103.085L101.76 104.201L103.477 104.001L106.578 104.942L107.681 104.83L108.208 105.782L108.567 106.167C113.071 102.623 116.487 97.8833 118.424 92.4892L118.203 92.0088L118.201 87.9343L117.058 87.8201L114.078 90.733ZM106.765 61.9401L105.395 61.12L103.728 60.2127L102.424 58.443L103.674 57.9985L103.385 57.3266L102.521 57.7219L103.045 57.0154L103.563 56.1476L103.211 55.5113L101.881 54.9166L100.96 53.6381C94.7526 51.1642 87.9075 50.7849 81.4651 52.5578C75.0228 54.3307 69.3355 58.1587 65.268 63.46L67.3112 63.6847L67.0567 65.3252L65.9849 66.2418L66.8139 68.0393L66.4111 68.5109L66.1631 69.5642L66.8617 70.673L68.0131 70.2023L68.1716 71.5235L69.2519 70.9245L69.7922 67.5489L69.4212 66.4261L71.1307 65.3106L71.1508 64.2999L72.8903 63.0872L72.4837 61.9003L73.7824 61.0964C73.7824 61.0964 74.4552 60.0592 74.6476 59.9525C75.0586 59.8281 75.4782 59.7334 75.9028 59.6693L77.2812 59.9047L78.6155 59.1649L79.3739 57.8286L80.9076 57.146C81.1939 57.1661 81.4809 57.1175 81.7447 57.0043C82.0629 56.8279 82.7674 55.8537 82.7674 55.8537L85.248 55.9777L86.3298 56.126L86.859 57.0804L87.8832 56.677L87.8841 55.9285L88.9222 55.8527L89.1398 56.3963L87.5139 57.9652L89.372 58.7633L92.3663 58.7669L94.0263 59.5104L95.4969 58.8595L95.4622 58.0468L95.9006 57.6393L93.5401 57.2842L92.4512 57.7396L93.1407 57.0349L91.7772 56.3785L92.8244 55.7141L94.6453 55.7009L95.8099 57.0511L96.9697 57.4915L98.5647 59.019L100.526 59.2598L101.69 61.3586L103.684 61.5009L104.009 62.2369L104.274 63.1697L105.291 64.1021L105.738 64.6057L106.923 64.1967L106.834 62.8309L106.765 61.9401ZM104.036 55.0697L104.239 55.4347L104.484 56.6272L105.167 57.4122L106.005 57.2705L106.675 58.479L105.734 58.5847L107.463 62.1338L107.477 63.9572L108.973 65.4562L110.221 65.7602L112.126 69.1957L114.433 71.4087L116.456 72.9508L118.129 72.5198L117.931 70.9655L118.049 70.6903C117.574 69.5087 117.026 68.3575 116.409 67.2435C113.55 62.075 109.252 57.848 104.037 55.076L104.036 55.0697ZM89.1154 62.8135L83.8999 63.2933L82.0906 64.3802L82.3143 65.8362L81.0941 65.4325L79.8721 66.526L80.9075 68.6959L82.51 68.8877L82.6661 67.2211L84.1498 67.6464L87.08 68.2789L88.4851 69.9117L91.3012 71.0944L93.726 69.1695L93.1352 68.2493L91.9627 67.4838L90.4247 65.0122L90.4607 63.5767L89.1154 62.8135ZM93.3276 62.3096L92.2364 62.5921L91.7986 63.7506L93.2653 65.3493L94.094 64.8899L93.3276 62.3096ZM99.9168 60.2363L97.1251 60.3073L96.2562 59.7927L95.8534 60.2643L97.0029 61.2908L98.3027 62.7337L99.4677 62.5844L99.5209 62.2325L98.4195 61.5952L100.427 61.314L99.9168 60.2363ZM94.0736 93.4954L93.9637 93.8788L96.1898 93.3926L97.4455 93.8604L98.7276 93.3173L98.7832 92.3707L97.1839 92.9349L94.0736 93.4954ZM100.416 91.5589L99.2913 92.6823L99.7653 93.0837L101.418 92.1675L101.454 91.4831L100.918 91.8644L100.416 91.5589Z"/>
</mask>
<path d="M81.7545 70.2352L84.9342 69.9684L86.2666 70.7258L87.6609 70.5363L88.4567 71.6751L88.4011 72.6216L87.6161 73.3052L85.2833 73.599L85.1465 73.3524L85.9807 72.3095L84.8572 71.1847L82.778 71.5056L81.4526 70.912L81.7545 70.2352ZM114.078 90.733L111.585 91.0349L108.603 91.5243L106.63 92.6182L104.581 93.2546L102.791 94.8305L101.681 95.5266L100.98 95.915L100.07 97.4193L99.0791 98.6329L96.7538 98.5099L96.2104 96.4831L94.8827 96.6356L93.6101 97.3412L93.103 96.8743L92.5943 95.6602L91.7976 95.27L90.977 95.8894L91.0831 96.6625L90.0384 97.3255L88.4522 96.7153L87.2134 95.3997L87.1806 93.0899L89.0951 92.1928L89.8507 92.3576L90.6152 91.9337L91.2525 90.8323L92.2154 90.6209L94.4537 91.9594L94.8659 91.6503L93.9254 90.2564L93.1231 89.7049L92.5788 88.4267L94.367 86.1036L93.3806 83.5743L93.9411 82.1834L93.9565 80.2628L94.5216 79.7818L95.455 78.0164L95.2374 77.4728L94.2544 78.1017L93.7814 77.6965L93.0884 78.0807L92.1449 78.9262L92.1949 77.8184L94.0618 75.9514L94.2526 75.0975L95.9182 76.0023L96.8115 76.2583L97.5651 75.5181L96.7247 74.9038L94.8588 74.6905L92.375 73.8105L90.1839 73.6098L88.5206 74.2096L87.336 73.87L86.1806 74.1881L86.1916 74.5045L87.0862 76.4204L87.6856 76.9199L88.264 79.2658L86.4266 78.9528L86.1254 77.9559L84.4358 78.0607L83.4767 77.68L82.9129 75.9128L84.0165 73.5532L83.2984 71.9555L82.6335 72.408L81.8698 72.0833L81.1508 71.2341L80.6688 71.4175L80.9869 72.5728L80.36 73.088L78.8112 71.0448L78.1243 71.0097L77.022 71.121L76.2786 72.1878L78.2201 72.6945L79.0657 73.638L75.8198 73.1806L73.2718 72.3361L72.1889 70.6794L70.2523 71.0889L69.4429 72.6533C69.2384 73.0114 69.0138 73.3577 68.7702 73.6905C68.3344 74.0886 67.8698 74.454 67.3803 74.7836L67.7339 76.003L66.307 76.878L66.8222 77.5049L69.387 76.5827L71.3366 77.2494L72.5672 79.469L72.9607 81.8304L74.2526 83.8581L74.2004 87.9628L76.3915 92.8163L78.446 95.1725L80.4003 96.7492L81.4258 96.3482L80.543 95.506L79.611 95.0232L78.5175 93.8012L79.0186 93.3557L81.1793 95.1532L82.9598 96.8584L83.8773 98.5133L85.8967 99.3058L88.9367 99.6711L92.7376 98.7277L94.2854 99.1175L95.6109 99.711L97.1436 99.777L98.7564 99.3826L100.119 98.5432C100.119 98.5432 100.408 99.215 100.584 99.5332C100.761 99.8513 100.469 101.425 100.469 101.425L100.477 103.085L101.76 104.201L103.477 104.001L106.578 104.942L107.681 104.83L108.208 105.782L108.567 106.167C113.071 102.623 116.487 97.8833 118.424 92.4892L118.203 92.0088L118.201 87.9343L117.058 87.8201L114.078 90.733ZM106.765 61.9401L105.395 61.12L103.728 60.2127L102.424 58.443L103.674 57.9985L103.385 57.3266L102.521 57.7219L103.045 57.0154L103.563 56.1476L103.211 55.5113L101.881 54.9166L100.96 53.6381C94.7526 51.1642 87.9075 50.7849 81.4651 52.5578C75.0228 54.3307 69.3355 58.1587 65.268 63.46L67.3112 63.6847L67.0567 65.3252L65.9849 66.2418L66.8139 68.0393L66.4111 68.5109L66.1631 69.5642L66.8617 70.673L68.0131 70.2023L68.1716 71.5235L69.2519 70.9245L69.7922 67.5489L69.4212 66.4261L71.1307 65.3106L71.1508 64.2999L72.8903 63.0872L72.4837 61.9003L73.7824 61.0964C73.7824 61.0964 74.4552 60.0592 74.6476 59.9525C75.0586 59.8281 75.4782 59.7334 75.9028 59.6693L77.2812 59.9047L78.6155 59.1649L79.3739 57.8286L80.9076 57.146C81.1939 57.1661 81.4809 57.1175 81.7447 57.0043C82.0629 56.8279 82.7674 55.8537 82.7674 55.8537L85.248 55.9777L86.3298 56.126L86.859 57.0804L87.8832 56.677L87.8841 55.9285L88.9222 55.8527L89.1398 56.3963L87.5139 57.9652L89.372 58.7633L92.3663 58.7669L94.0263 59.5104L95.4969 58.8595L95.4622 58.0468L95.9006 57.6393L93.5401 57.2842L92.4512 57.7396L93.1407 57.0349L91.7772 56.3785L92.8244 55.7141L94.6453 55.7009L95.8099 57.0511L96.9697 57.4915L98.5647 59.019L100.526 59.2598L101.69 61.3586L103.684 61.5009L104.009 62.2369L104.274 63.1697L105.291 64.1021L105.738 64.6057L106.923 64.1967L106.834 62.8309L106.765 61.9401ZM104.036 55.0697L104.239 55.4347L104.484 56.6272L105.167 57.4122L106.005 57.2705L106.675 58.479L105.734 58.5847L107.463 62.1338L107.477 63.9572L108.973 65.4562L110.221 65.7602L112.126 69.1957L114.433 71.4087L116.456 72.9508L118.129 72.5198L117.931 70.9655L118.049 70.6903C117.574 69.5087 117.026 68.3575 116.409 67.2435C113.55 62.075 109.252 57.848 104.037 55.076L104.036 55.0697ZM89.1154 62.8135L83.8999 63.2933L82.0906 64.3802L82.3143 65.8362L81.0941 65.4325L79.8721 66.526L80.9075 68.6959L82.51 68.8877L82.6661 67.2211L84.1498 67.6464L87.08 68.2789L88.4851 69.9117L91.3012 71.0944L93.726 69.1695L93.1352 68.2493L91.9627 67.4838L90.4247 65.0122L90.4607 63.5767L89.1154 62.8135ZM93.3276 62.3096L92.2364 62.5921L91.7986 63.7506L93.2653 65.3493L94.094 64.8899L93.3276 62.3096ZM99.9168 60.2363L97.1251 60.3073L96.2562 59.7927L95.8534 60.2643L97.0029 61.2908L98.3027 62.7337L99.4677 62.5844L99.5209 62.2325L98.4195 61.5952L100.427 61.314L99.9168 60.2363ZM94.0736 93.4954L93.9637 93.8788L96.1898 93.3926L97.4455 93.8604L98.7276 93.3173L98.7832 92.3707L97.1839 92.9349L94.0736 93.4954ZM100.416 91.5589L99.2913 92.6823L99.7653 93.0837L101.418 92.1675L101.454 91.4831L100.918 91.8644L100.416 91.5589Z" fill="white" stroke="white" stroke-width="2" mask="url(#path-26-inside-1_548_226)"/>
</mask>
<g mask="url(#mask2_548_226)">
<path opacity="0.65" d="M95.9456 93.557C90.1763 96.7551 83.5293 98.007 76.9919 97.1268C70.4545 96.2466 64.3753 93.2811 59.6574 88.671C60.6826 93.3325 62.7825 97.6901 65.7897 101.396C68.7969 105.103 72.6282 108.056 76.9784 110.019C81.3286 111.983 86.0774 112.904 90.8463 112.708C95.6151 112.511 100.272 111.204 104.447 108.89C108.621 106.575 112.197 103.318 114.889 99.3772C117.582 95.4363 119.317 90.921 119.956 86.1911C120.595 81.4612 120.12 76.6474 118.57 72.1333C117.019 67.6193 114.436 63.5298 111.025 60.1908C112.436 66.6346 111.73 73.3614 109.014 79.3723C106.297 85.3832 101.714 90.3577 95.9456 93.557Z" fill="white"/>
</g>
<path d="M81.7545 70.2352L84.9342 69.9684L86.2666 70.7258L87.6609 70.5363L88.4567 71.6751L88.4011 72.6216L87.6161 73.3052L85.2833 73.599L85.1465 73.3524L85.9807 72.3095L84.8572 71.1847L82.778 71.5056L81.4526 70.912L81.7545 70.2352ZM114.078 90.733L111.585 91.0349L108.603 91.5243L106.63 92.6182L104.581 93.2546L102.791 94.8305L101.681 95.5266L100.98 95.915L100.07 97.4193L99.0791 98.6329L96.7538 98.5099L96.2104 96.4831L94.8827 96.6356L93.6101 97.3412L93.103 96.8743L92.5943 95.6602L91.7976 95.27L90.977 95.8894L91.0831 96.6625L90.0384 97.3255L88.4522 96.7153L87.2134 95.3997L87.1806 93.0899L89.0951 92.1928L89.8507 92.3576L90.6152 91.9337L91.2525 90.8323L92.2154 90.6209L94.4537 91.9594L94.8659 91.6503L93.9254 90.2564L93.1231 89.7049L92.5788 88.4267L94.367 86.1036L93.3806 83.5743L93.9411 82.1834L93.9565 80.2628L94.5216 79.7818L95.455 78.0164L95.2374 77.4728L94.2544 78.1017L93.7814 77.6965L93.0884 78.0807L92.1449 78.9262L92.1949 77.8184L94.0618 75.9514L94.2526 75.0975L95.9182 76.0023L96.8115 76.2583L97.5651 75.5181L96.7247 74.9038L94.8588 74.6905L92.375 73.8105L90.1839 73.6098L88.5206 74.2096L87.336 73.87L86.1806 74.1881L86.1916 74.5045L87.0862 76.4204L87.6856 76.9199L88.264 79.2658L86.4266 78.9528L86.1254 77.9559L84.4358 78.0607L83.4767 77.68L82.9129 75.9128L84.0165 73.5532L83.2984 71.9555L82.6335 72.408L81.8698 72.0833L81.1508 71.2341L80.6688 71.4175L80.9869 72.5728L80.36 73.088L78.8112 71.0448L78.1243 71.0097L77.022 71.121L76.2786 72.1878L78.2201 72.6945L79.0657 73.638L75.8198 73.1806L73.2718 72.3361L72.1889 70.6794L70.2523 71.0889L69.4429 72.6533C69.2384 73.0114 69.0138 73.3577 68.7702 73.6905C68.3344 74.0886 67.8698 74.454 67.3803 74.7836L67.7339 76.003L66.307 76.878L66.8222 77.5049L69.387 76.5827L71.3366 77.2494L72.5672 79.469L72.9607 81.8304L74.2526 83.8581L74.2004 87.9628L76.3915 92.8163L78.446 95.1725L80.4003 96.7492L81.4258 96.3482L80.543 95.506L79.611 95.0232L78.5175 93.8012L79.0186 93.3557L81.1793 95.1532L82.9598 96.8584L83.8773 98.5133L85.8967 99.3058L88.9367 99.6711L92.7376 98.7277L94.2854 99.1175L95.6109 99.711L97.1436 99.777L98.7564 99.3826L100.119 98.5432C100.119 98.5432 100.408 99.215 100.584 99.5332C100.761 99.8513 100.469 101.425 100.469 101.425L100.477 103.085L101.76 104.201L103.477 104.001L106.578 104.942L107.681 104.83L108.208 105.782L108.567 106.167C113.071 102.623 116.487 97.8833 118.424 92.4892L118.203 92.0088L118.201 87.9343L117.058 87.8201L114.078 90.733ZM106.765 61.9401L105.395 61.12L103.728 60.2127L102.424 58.443L103.674 57.9985L103.385 57.3266L102.521 57.7219L103.045 57.0154L103.563 56.1476L103.211 55.5113L101.881 54.9166L100.96 53.6381C94.7526 51.1642 87.9075 50.7849 81.4651 52.5578C75.0228 54.3307 69.3355 58.1587 65.268 63.46L67.3112 63.6847L67.0567 65.3252L65.9849 66.2418L66.8139 68.0393L66.4111 68.5109L66.1631 69.5642L66.8617 70.673L68.0131 70.2023L68.1716 71.5235L69.2519 70.9245L69.7922 67.5489L69.4212 66.4261L71.1307 65.3106L71.1508 64.2999L72.8903 63.0872L72.4837 61.9003L73.7824 61.0964C73.7824 61.0964 74.4552 60.0592 74.6476 59.9525C75.0586 59.8281 75.4782 59.7334 75.9028 59.6693L77.2812 59.9047L78.6155 59.1649L79.3739 57.8286L80.9076 57.146C81.1939 57.1661 81.4809 57.1175 81.7447 57.0043C82.0629 56.8279 82.7674 55.8537 82.7674 55.8537L85.248 55.9777L86.3298 56.126L86.859 57.0804L87.8832 56.677L87.8841 55.9285L88.9222 55.8527L89.1398 56.3963L87.5139 57.9652L89.372 58.7633L92.3663 58.7669L94.0263 59.5104L95.4969 58.8595L95.4622 58.0468L95.9006 57.6393L93.5401 57.2842L92.4512 57.7396L93.1407 57.0349L91.7772 56.3785L92.8244 55.7141L94.6453 55.7009L95.8099 57.0511L96.9697 57.4915L98.5647 59.019L100.526 59.2598L101.69 61.3586L103.684 61.5009L104.009 62.2369L104.274 63.1697L105.291 64.1021L105.738 64.6057L106.923 64.1967L106.834 62.8309L106.765 61.9401ZM104.036 55.0697L104.239 55.4347L104.484 56.6272L105.167 57.4122L106.005 57.2705L106.675 58.479L105.734 58.5847L107.463 62.1338L107.477 63.9572L108.973 65.4562L110.221 65.7602L112.126 69.1957L114.433 71.4087L116.456 72.9508L118.129 72.5198L117.931 70.9655L118.049 70.6903C117.574 69.5087 117.026 68.3575 116.409 67.2435C113.55 62.075 109.252 57.848 104.037 55.076L104.036 55.0697ZM89.1154 62.8135L83.8999 63.2933L82.0906 64.3802L82.3143 65.8362L81.0941 65.4325L79.8721 66.526L80.9075 68.6959L82.51 68.8877L82.6661 67.2211L84.1498 67.6464L87.08 68.2789L88.4851 69.9117L91.3012 71.0944L93.726 69.1695L93.1352 68.2493L91.9627 67.4838L90.4247 65.0122L90.4607 63.5767L89.1154 62.8135ZM93.3276 62.3096L92.2364 62.5921L91.7986 63.7506L93.2653 65.3493L94.094 64.8899L93.3276 62.3096ZM99.9168 60.2363L97.1251 60.3073L96.2562 59.7927L95.8534 60.2643L97.0029 61.2908L98.3027 62.7337L99.4677 62.5844L99.5209 62.2325L98.4195 61.5952L100.427 61.314L99.9168 60.2363ZM94.0736 93.4954L93.9637 93.8788L96.1898 93.3926L97.4455 93.8604L98.7276 93.3173L98.7832 92.3707L97.1839 92.9349L94.0736 93.4954ZM100.416 91.5589L99.2913 92.6823L99.7653 93.0837L101.418 92.1675L101.454 91.4831L100.918 91.8644L100.416 91.5589Z" stroke="#09DBFF" stroke-opacity="0.85" stroke-width="0.5" stroke-miterlimit="10"/>
</g>
<path d="M119.056 90.5514C123.719 74.2819 114.311 57.3123 98.0412 52.6487C81.7717 47.9852 64.8021 57.3937 60.1385 73.6633C55.475 89.9328 64.8835 106.902 81.1531 111.566C97.4226 116.23 114.392 106.821 119.056 90.5514Z" stroke="#263238" stroke-miterlimit="10"/>
<path d="M99.1314 108.596C100.613 107.775 101.149 105.907 100.327 104.425C99.5054 102.943 97.638 102.408 96.156 103.23C94.674 104.051 94.1387 105.919 94.9604 107.401C95.782 108.883 97.6495 109.418 99.1314 108.596Z" fill="white" stroke="white" stroke-width="0.5" stroke-miterlimit="10"/>
<path d="M98.4342 105.239L96.6856 106.209C96.5214 106.3 96.4001 106.452 96.3484 106.633C96.2966 106.813 96.3187 107.007 96.4097 107.171L97.2233 108.639C97.8357 108.735 98.4625 108.621 99.0023 108.317C99.5421 108.012 99.9633 107.534 100.198 106.96L99.3964 105.515C99.3054 105.351 99.1529 105.23 98.9724 105.178C98.792 105.126 98.5984 105.148 98.4342 105.239Z" fill="white"/>
<path d="M97.3787 105.47C97.8704 105.197 98.048 104.578 97.7754 104.086C97.5028 103.594 96.8831 103.417 96.3914 103.689C95.8997 103.962 95.7221 104.582 95.9947 105.073C96.2674 105.565 96.887 105.743 97.3787 105.47Z" fill="white"/>
<path d="M106.064 56.2026C111.555 57.1728 115.928 59.7622 118.222 63.9007C123.829 74.0125 115.017 89.6226 98.5343 98.7609C82.052 107.899 64.1455 107.106 58.5378 96.9917C56.0847 92.5672 56.3929 87.0921 58.894 81.5653" stroke="#09DBFF" stroke-width="0.5" stroke-miterlimit="10"/>
<path d="M60.934 71.2639C61.179 65.3724 63.3277 60.3441 67.4392 57.21C77.111 49.8679 94.0068 55.8518 105.181 70.5735C116.354 85.2952 117.574 103.179 107.904 110.52C103.501 113.861 97.6008 114.443 91.4244 112.695" stroke="#09DBFF" stroke-width="0.5" stroke-miterlimit="10"/>
<path d="M122.814 87.7026C123.137 80.0483 108.051 73.1961 89.118 72.3978C70.1854 71.5995 54.5759 77.1573 54.2531 84.8116C53.9303 92.4658 69.0166 99.318 87.9492 100.116C106.882 100.915 122.491 95.3568 122.814 87.7026Z" stroke="#09DBFF" stroke-width="0.5" stroke-miterlimit="10"/>
<path d="M102.05 90.5417C111.648 73.629 114.027 56.8534 107.364 53.0722C100.701 49.291 87.5191 59.9362 77.9213 76.8489C68.3235 93.7616 65.9443 110.537 72.6073 114.318C79.2702 118.1 92.4521 107.454 102.05 90.5417Z" stroke="#09DBFF" stroke-width="0.5" stroke-miterlimit="10"/>
<path d="M92.4954 58.36C92.4413 58.2624 92.3595 58.1831 92.2603 58.132C92.1611 58.081 92.049 58.0605 91.9382 58.0731C91.8274 58.0857 91.7228 58.131 91.6376 58.203C91.5525 58.2751 91.4907 58.3708 91.4599 58.4781C91.4292 58.5853 91.4309 58.6992 91.465 58.8055C91.499 58.9117 91.5637 59.0055 91.651 59.0749C91.7383 59.1443 91.8443 59.1863 91.9554 59.1955C92.0666 59.2048 92.178 59.1808 92.2756 59.1267C92.4064 59.0542 92.503 58.9327 92.5443 58.7889C92.5855 58.6451 92.5679 58.4908 92.4954 58.36Z" fill="white" stroke="white" stroke-width="0.5" stroke-miterlimit="10"/>
<path d="M109.116 75.5433C109.062 75.4457 108.98 75.3664 108.881 75.3153C108.782 75.2643 108.67 75.2438 108.559 75.2564C108.448 75.269 108.343 75.3143 108.258 75.3863C108.173 75.4584 108.111 75.5541 108.081 75.6614C108.05 75.7686 108.052 75.8825 108.086 75.9888C108.12 76.095 108.184 76.1888 108.272 76.2582C108.359 76.3276 108.465 76.3696 108.576 76.3788C108.687 76.3881 108.799 76.3641 108.896 76.31C109.027 76.2375 109.124 76.116 109.165 75.9722C109.206 75.8284 109.189 75.6741 109.116 75.5433Z" fill="white" stroke="white" stroke-width="0.5" stroke-miterlimit="10"/>
<path d="M113.718 86.4023C113.664 86.3047 113.582 86.2254 113.483 86.1743C113.384 86.1233 113.272 86.1028 113.161 86.1154C113.05 86.128 112.945 86.1733 112.86 86.2453C112.775 86.3174 112.713 86.4131 112.683 86.5204C112.652 86.6276 112.654 86.7415 112.688 86.8478C112.722 86.954 112.786 87.0478 112.874 87.1172C112.961 87.1866 113.067 87.2286 113.178 87.2378C113.289 87.2471 113.401 87.2231 113.498 87.169C113.629 87.0965 113.726 86.975 113.767 86.8312C113.808 86.6874 113.791 86.5331 113.718 86.4023Z" fill="white" stroke="white" stroke-width="0.5" stroke-miterlimit="10"/>
<path d="M114.903 95.9603C114.849 95.8628 114.767 95.7835 114.668 95.7324C114.569 95.6813 114.457 95.6608 114.346 95.6734C114.235 95.6861 114.13 95.7313 114.045 95.8034C113.96 95.8755 113.898 95.9712 113.868 96.0784C113.837 96.1856 113.839 96.2996 113.873 96.4058C113.907 96.512 113.971 96.6058 114.059 96.6752C114.146 96.7447 114.252 96.7867 114.363 96.7959C114.474 96.8051 114.586 96.7812 114.683 96.7271C114.814 96.6545 114.911 96.533 114.952 96.3892C114.993 96.2454 114.975 96.0912 114.903 95.9603Z" fill="white" stroke="white" stroke-width="0.5" stroke-miterlimit="10"/>
<path d="M118.125 79.619C118.071 79.5215 117.989 79.4421 117.89 79.3911C117.79 79.34 117.678 79.3195 117.567 79.3321C117.457 79.3448 117.352 79.39 117.267 79.4621C117.182 79.5342 117.12 79.6299 117.089 79.7371C117.058 79.8443 117.06 79.9583 117.094 80.0645C117.128 80.1707 117.193 80.2645 117.28 80.3339C117.368 80.4034 117.474 80.4453 117.585 80.4546C117.696 80.4638 117.807 80.4399 117.905 80.3858C118.036 80.3132 118.132 80.1917 118.174 80.0479C118.215 79.9041 118.197 79.7498 118.125 79.619Z" fill="white" stroke="white" stroke-width="0.5" stroke-miterlimit="10"/>
<path d="M96.2109 99.8685C96.1568 99.7709 96.075 99.6916 95.9759 99.6405C95.8767 99.5895 95.7646 99.569 95.6538 99.5816C95.5429 99.5942 95.4383 99.6394 95.3532 99.7115C95.2681 99.7836 95.2062 99.8793 95.1755 99.9866C95.1448 100.094 95.1465 100.208 95.1805 100.314C95.2146 100.42 95.2793 100.514 95.3666 100.583C95.4539 100.653 95.5599 100.695 95.671 100.704C95.7822 100.713 95.8936 100.689 95.9911 100.635C96.122 100.563 96.2186 100.441 96.2598 100.297C96.3011 100.154 96.2835 99.9993 96.2109 99.8685Z" fill="white" stroke="white" stroke-width="0.5" stroke-miterlimit="10"/>
<path d="M69.2029 104.131C69.1488 104.033 69.067 103.954 68.9678 103.903C68.8686 103.852 68.7565 103.832 68.6457 103.844C68.5349 103.857 68.4303 103.902 68.3452 103.974C68.26 104.046 68.1982 104.142 68.1674 104.249C68.1367 104.356 68.1385 104.47 68.1725 104.577C68.2065 104.683 68.2712 104.777 68.3586 104.846C68.4459 104.915 68.5518 104.957 68.663 104.967C68.7741 104.976 68.8855 104.952 68.9831 104.898C69.1139 104.825 69.2106 104.704 69.2518 104.56C69.293 104.416 69.2754 104.262 69.2029 104.131Z" fill="white" stroke="white" stroke-width="0.5" stroke-miterlimit="10"/>
<path d="M70.1719 96.9225C70.1178 96.8249 70.036 96.7456 69.9368 96.6945C69.8376 96.6435 69.7255 96.623 69.6147 96.6356C69.5039 96.6482 69.3993 96.6935 69.3141 96.7655C69.229 96.8376 69.1672 96.9333 69.1364 97.0406C69.1057 97.1478 69.1075 97.2617 69.1415 97.368C69.1755 97.4742 69.2402 97.568 69.3275 97.6374C69.4149 97.7068 69.5208 97.7488 69.632 97.758C69.7431 97.7673 69.8545 97.7433 69.9521 97.6892C70.0829 97.6167 70.1796 97.4952 70.2208 97.3514C70.262 97.2076 70.2444 97.0533 70.1719 96.9225Z" fill="white" stroke="white" stroke-width="0.5" stroke-miterlimit="10"/>
<path d="M80.9817 72.2726C80.9276 72.175 80.8458 72.0957 80.7466 72.0446C80.6474 71.9936 80.5354 71.9731 80.4245 71.9857C80.3137 71.9983 80.2091 72.0436 80.124 72.1156C80.0388 72.1877 79.977 72.2834 79.9463 72.3907C79.9155 72.4979 79.9173 72.6118 79.9513 72.7181C79.9853 72.8243 80.0501 72.9181 80.1374 72.9875C80.2247 73.0569 80.3306 73.0989 80.4418 73.1081C80.5529 73.1174 80.6643 73.0934 80.7619 73.0393C80.8927 72.9668 80.9894 72.8453 81.0306 72.7015C81.0718 72.5577 81.0542 72.4034 80.9817 72.2726Z" fill="white" stroke="white" stroke-width="0.5" stroke-miterlimit="10"/>
<path d="M110.976 57.2745C110.922 57.1769 110.84 57.0976 110.741 57.0465C110.641 56.9955 110.529 56.975 110.419 56.9876C110.308 57.0002 110.203 57.0455 110.118 57.1175C110.033 57.1896 109.971 57.2853 109.94 57.3926C109.91 57.4998 109.911 57.6137 109.945 57.72C109.979 57.8262 110.044 57.92 110.131 57.9894C110.219 58.0588 110.325 58.1008 110.436 58.11C110.547 58.1193 110.658 58.0953 110.756 58.0412C110.887 57.9687 110.983 57.8472 111.025 57.7034C111.066 57.5596 111.048 57.4053 110.976 57.2745Z" fill="white" stroke="white" stroke-width="0.5" stroke-miterlimit="10"/>
<path d="M57.3848 90.1083C57.3307 90.0108 57.2489 89.9315 57.1497 89.8804C57.0505 89.8293 56.9384 89.8088 56.8276 89.8215C56.7168 89.8341 56.6122 89.8793 56.527 89.9514C56.4419 90.0235 56.3801 90.1192 56.3493 90.2264C56.3186 90.3336 56.3203 90.4476 56.3544 90.5538C56.3884 90.6601 56.4531 90.7538 56.5404 90.8232C56.6277 90.8927 56.7337 90.9347 56.8448 90.9439C56.956 90.9531 57.0674 90.9292 57.165 90.8751C57.2958 90.8026 57.3924 90.681 57.4337 90.5372C57.4749 90.3934 57.4573 90.2392 57.3848 90.1083Z" fill="white" stroke="white" stroke-width="0.5" stroke-miterlimit="10"/>
<path d="M104.501 67.7775L102.747 68.7497C102.584 68.8404 102.463 68.9923 102.412 69.172C102.36 69.3518 102.382 69.5446 102.473 69.7081L103.293 71.1879C103.905 71.284 104.531 71.1707 105.071 70.8663C105.61 70.562 106.031 70.0845 106.265 69.5112L105.464 68.0659C105.42 67.9832 105.36 67.91 105.288 67.8506C105.216 67.7913 105.132 67.7468 105.043 67.72C104.953 67.6932 104.859 67.6844 104.766 67.6943C104.673 67.7042 104.583 67.7324 104.501 67.7775Z" fill="white"/>
<path d="M103.445 68.008C103.621 67.9104 103.765 67.7628 103.857 67.5837C103.949 67.4047 103.986 67.2024 103.963 67.0024C103.94 66.8023 103.859 66.6135 103.729 66.4599C103.599 66.3062 103.426 66.1946 103.232 66.1391C103.039 66.0836 102.833 66.0868 102.641 66.1482C102.45 66.2096 102.28 66.3265 102.155 66.4841C102.03 66.6416 101.954 66.8328 101.937 67.0335C101.921 67.2342 101.964 67.4353 102.061 67.6113C102.192 67.8475 102.412 68.0219 102.671 68.0963C102.931 68.1707 103.209 68.139 103.445 68.008Z" fill="white"/>
</svg>
